# xmcd CD database file
#
# Track frame offsets:
#	150
#	16905
#	37490
#	51425
#	69485
#	85355
#	106450
#	118845
#	141030
#	164865
#	179030
#	197800
#	218075
#	236305
#	253955
#
# Disc length: 3620 seconds
#
# Revision: 0
# Processed by: cddbd v1.5.2PL0 Copyright (c) Steve Scherf et al.
# Submitted via: CDex 1.70beta2
#
DISCID=ed0e220f
DTITLE=阿川泰子 - おとなＢＥＳＴ
DYEAR=2009
DGENRE=Jazz
TTITLE0=Meu Amor
TTITLE1=The Universe Is Calling You
TTITLE2=Keep This Heat (Acai)
TTITLE3=Skindo-Le-Le
TTITLE4=Seabird
TTITLE5=If You Never Come To Me
TTITLE6=Zanzibar
TTITLE7=Pardon My English
TTITLE8=Love Dance
TTITLE9=New York Afternoon
TTITLE10=Surrender
TTITLE11=Cinema
TTITLE12=Away
TTITLE13=Smile On Your Face
TTITLE14=So Many Stars
EXTD=YEAR: 2009
EXTT0=
EXTT1=
EXTT2=
EXTT3=
EXTT4=
EXTT5=
EXTT6=
EXTT7=
EXTT8=
EXTT9=
EXTT10=
EXTT11=
EXTT12=
EXTT13=
EXTT14=
PLAYORDER=
